<?xml version="1.0" standalone="no"?><!DOCTYPE svg PUBLIC "-//W3C//DTD SVG 1.1//EN" "http://www.w3.org/Graphics/SVG/1.1/DTD/svg11.dtd"><svg t="1766323160119" class="icon" viewBox="0 0 1024 1024" version="1.1" xmlns="http://www.w3.org/2000/svg" p-id="2564" xmlns:xlink="http://www.w3.org/1999/xlink" width="200" height="200"><path d="M958.6 645.5c0-24.7-20.1-44.7-44.8-44.7-24.7 0-44.7 20-44.7 44.7v106.4c0 19.9-24.1 29.9-38.2 15.8L695.6 632.3c-17.5-17.5-45.8-17.5-63.3 0s-17.5 45.8 0 63.3L767.6 831c14.1 14.1 4.1 38.2-15.8 38.2H645.4c-24.7 0-44.7 20-44.7 44.7 0 24.7 20 44.7 44.7 44.7h223.7c49.4 0 89.6-40.1 89.6-89.5V645.5zM153.3 63.9c-49.4 0-89.4 40.1-89.4 89.5V377c0 24.7 20 44.7 44.7 44.7 24.7 0 44.8-20 44.8-44.7V270.6c0-19.9 24.1-29.9 38.1-15.8l135.3 135.3c17.5 17.5 45.8 17.5 63.3 0s17.5-45.8 0-63.3L254.7 191.5c-14.1-14.1-4.1-38.2 15.8-38.2h106.4c24.7 0 44.7-20 44.7-44.7 0-24.7-20-44.7-44.7-44.7H153.3z" p-id="2565"></path></svg>